<svg xmlns="http://www.w3.org/2000/svg"><path fill-rule="evenodd" clip-rule="evenodd" d="M184 23.75a7 7 0 110 14h-40a7 7 0 110 14h22a7 7 0 110 14h-10.174c-4.874 0-8.826 3.134-8.826 7 0 2.577 2 4.91 6 7a7 7 0 110 14H70a7 7 0 110-14H31a7 7 0 110-14h40a7 7 0 100-14H46a7 7 0 110-14h40a7 7 0 110-14h98zm0 28a7 7 0 110 14 7 7 0 010-14z" fill="#DBDBFA"></path><path fill-rule="evenodd" clip-rule="evenodd" d="M130.672 22.75l9.302 67.843.835 6.806a4 4 0 01-3.482 4.458l-58.56 7.19a4 4 0 01-4.458-3.483l-9.016-73.427a2 2 0 011.741-2.229l.021-.002 4.859-.545 58.758-6.61zm-54.83 6.17l4.587-.515-4.587.515z" fill="#fff"></path><path d="M75.842 28.92l4.587-.515m50.243-5.655l9.302 67.843.835 6.806a4 4 0 01-3.482 4.458l-58.56 7.19a4 4 0 01-4.458-3.483l-9.016-73.427a2 2 0 011.741-2.229l.021-.002 4.859-.545 58.758-6.61z" stroke="#7E7BF6" stroke-width="2.5"></path><path fill-rule="evenodd" clip-rule="evenodd" d="M128.14 27.02l8.42 61.483.757 6.168c.244 1.987-1.15 3.793-3.113 4.035l-52.443 6.439c-1.963.241-3.753-1.175-3.997-3.162l-8.15-66.376a2 2 0 011.742-2.23l6.487-.796" fill="#F0F0FF"></path><path fill-rule="evenodd" clip-rule="evenodd" d="M133.229 10H87.672c-.76 0-1.447.308-1.945.806a2.741 2.741 0 00-.805 1.944v76c0 .76.308 1.447.805 1.945a2.741 2.741 0 001.945.805h59a2.74 2.74 0 001.944-.805 2.74 2.74 0 00.806-1.945V26.185c0-.73-.29-1.43-.806-1.945l-13.443-13.435a2.75 2.75 0 00-1.944-.805z" fill="#fff" stroke="#7F7CFA" stroke-width="2.5"></path><path d="M133.672 11.153V22.75a3 3 0 003 3h7.933" stroke="#807EFA" stroke-width="2.5" stroke-linecap="round" stroke-linejoin="round"></path><path d="M95.672 76.75h26m-26-51h26-26zm0 12h43-43zm0 13h43-43zm0 13h43-43z" stroke="#817FFA" stroke-width="2.5" stroke-linecap="round" stroke-linejoin="round"></path></svg>