<svg width="1em" height="1em" viewBox="0 0 24 24" fill="none" xmlns="http://www.w3.org/2000/svg" class="SocialLinks__StyledDiscourse-sc-1ck3zd4-4 kEzyQw"><path d="M12.103 0C5.533 0 0 5.278 0 11.79V24l12.1-.012c6.57 0 11.9-5.481 11.9-11.992C24 5.486 18.666 0 12.103 0z" fill="#231F20"></path><path d="M12.22 4.564a7.43 7.43 0 00-3.644.956 7.346 7.346 0 00-2.692 2.614 7.26 7.26 0 00-.149 7.22L4.4 19.606l4.793-1.072a7.433 7.433 0 006.355-.14 7.36 7.36 0 002.513-2.057 7.28 7.28 0 001.372-2.93 7.243 7.243 0 00-.035-3.228A7.281 7.281 0 0017.96 7.28a7.365 7.365 0 00-2.557-2.002 7.432 7.432 0 00-3.178-.715h-.007z" fill="#FFF9AE"></path><path d="M18.071 7.426a7.262 7.262 0 011.51 4.499 7.264 7.264 0 01-1.595 4.47 7.38 7.38 0 01-4.028 2.558 7.437 7.437 0 01-4.765-.43L4.4 19.61l4.88-.571a7.432 7.432 0 005.181.858 7.381 7.381 0 004.443-2.778 7.258 7.258 0 00-.833-9.693z" fill="#00AEEF"></path><path d="M16.713 6.078a7.253 7.253 0 01.86 8.928 7.361 7.361 0 01-3.736 2.962 7.437 7.437 0 01-4.784.065L4.4 19.61l4.793-1.075a7.436 7.436 0 005.24.313 7.362 7.362 0 004.123-3.22 7.249 7.249 0 00.914-5.123 7.296 7.296 0 00-2.757-4.427z" fill="#00A94F"></path><path d="M6.176 15.515a7.246 7.246 0 01-.26-4.876 7.312 7.312 0 012.9-3.95 7.427 7.427 0 019.26.735 7.387 7.387 0 00-4.603-2.771 7.431 7.431 0 00-5.277 1.068A7.311 7.311 0 005.06 10.06a7.249 7.249 0 00.676 5.294L4.4 19.607l1.776-4.092z" fill="#F15D22"></path><path d="M5.735 15.353a7.25 7.25 0 01-.764-4.818 7.294 7.294 0 012.465-4.222 7.415 7.415 0 014.596-1.744 7.42 7.42 0 014.681 1.509 7.404 7.404 0 00-4.865-2.26 7.421 7.421 0 00-5.12 1.61 7.293 7.293 0 00-2.66 4.626A7.256 7.256 0 005.28 15.24l-.877 4.37 1.332-4.257z" fill="#E31B23"></path></svg>