<svg width="1em" height="1em" viewBox="0 0 24 24" fill="none" xmlns="http://www.w3.org/2000/svg" class="SocialLinks__StyledStrapi-sc-1ck3zd4-2 gatZQq"><path fill-rule="evenodd" clip-rule="evenodd" d="M23.498 0H7.68v8.035h7.783c.278 0 .503.224.503.502v7.783H24V.502A.502.502 0 0023.498 0z" fill="#8E75FF"></path><path opacity="0.405" fill-rule="evenodd" clip-rule="evenodd" d="M7.68 0v8.035H.252a.25.25 0 01-.178-.429L7.68 0zM16.395 23.926a.251.251 0 01-.43-.177V16.32H24l-7.605 7.606z" fill="#8E75FF"></path><path opacity="0.405" d="M7.68 8.035h8.034c.14 0 .252.112.252.25v8.035H8.183a.502.502 0 01-.503-.502V8.035z" fill="#8E75FF"></path></svg>